# xmcd
#
# Track frame offsets: 
#        150
#        21530
#        35102
#        56342
#        84055
#        107740
#        132850
#        154177
#        174472
#        194285
#        218875
#        244787
#
# Disc length: 3513 seconds
#
# Revision: 9
# Processed by: cddbd v1.5.2PL0 Copyright (c) Steve Scherf et al.
# Submitted via: ExactAudioCopy v1.0b1
#
DISCID=9f0db70c
DTITLE=Alabama 3 - La Peste
DYEAR=2000
DGENRE=Country
TTITLE0=Too Sick to Pray
TTITLE1=Mansion on the Hill
TTITLE2=Sad Eyed Lady of the Lowlife
TTITLE3=Walking in My Sleep
TTITLE4=Wade into the Water
TTITLE5=Hotel California
TTITLE6=Cocaine (Killed My Community)
TTITLE7=The Thrills Have Gone
TTITLE8=2129
TTITLE9=Strange
TTITLE10=Sinking...
TTITLE11=Woke Up This Morning [chosen one mix]
EXTD=YEAR: 2000
EXTT0=
EXTT1=
EXTT2=
EXTT3=
EXTT4=
EXTT5=
EXTT6=
EXTT7=
EXTT8=
EXTT9=
EXTT10=
EXTT11=
PLAYORDER=
